# xmcd CD database file
#
# Track frame offsets:
#	183
#	12753
#	26803
#	39730
#	53798
#	68703
#	82055
#	93183
#	106353
#	120230
#	135135
#	148325
#	160403
#	172858
#	186475
#	198940
#	211163
#	228953
#
# Disc length: 3217 seconds
#
# Revision: 1
# Processed by: cddbd v1.5.1PL0 Copyright (c) Steve Scherf et al.
# Submitted via: CDex 1.51
#
DISCID=ed0c8f12
DTITLE=Various Artist - Gefühle - Vol.1 - Die schönsten romantischen Schlager
DYEAR=1900
DGENRE=Oldies
TTITLE0=Cliff Richard - Du bist mein erster Gedanke
TTITLE1=Wanda Jackson - Santo Domingo
TTITLE2=Roy Black - Frag nur dein Herz
TTITLE3=Peggy March - Yesterday Waltz
TTITLE4=Bata Illic - Mit verbundenen Augen
TTITLE5=Manuela - Wenn es Nacht wird in Harlem
TTITLE6=Tony Marshall - Aline
TTITLE7=Gitte - Souveniers von dir
TTITLE8=Roland W. - Monja
TTITLE9=Peter Alexander - Der letzte Walzer
TTITLE10=Dalida - Am Tag als der Regen kam
TTITLE11=Ivo Robic - Rot ist der Wein
TTITLE12=Erik Silvester - Du liebst nur einmal
TTITLE13=Vicky Leandros - Blau wie das Meer
TTITLE14=Peter Rubin - Hätt ich einmal nur Zeit
TTITLE15=Karel Gott - Weißt du wohin
TTITLE16=Petula Clark - Kiss Me Goodbye
TTITLE17=Udo Jürgens - Mercie, Chérie
EXTD=
EXTT0=
EXTT1=
EXTT2=
EXTT3=
EXTT4=
EXTT5=
EXTT6=
EXTT7=
EXTT8=
EXTT9=
EXTT10=
EXTT11=
EXTT12=
EXTT13=
EXTT14=
EXTT15=
EXTT16=
EXTT17=
PLAYORDER=
